<?xml version="1.0" encoding="UTF-8" standalone="no"?>
<!DOCTYPE svg PUBLIC "-//W3C//DTD SVG 1.1//EN"
 "http://www.w3.org/Graphics/SVG/1.1/DTD/svg11.dtd">
<!-- Generated by graphviz version 2.40.1 (20161225.0304)
 -->
<!-- Title: dependencies Pages: 1 -->
<svg width="504pt" height="352pt"
 viewBox="0.00 0.00 504.00 352.00" xmlns="http://www.w3.org/2000/svg" xmlns:xlink="http://www.w3.org/1999/xlink">
<g id="graph0" class="graph" transform="scale(1 1) rotate(0) translate(4 348)">
<title>dependencies</title>
<polygon fill="#ffffff" stroke="transparent" points="-4,4 -4,-348 500,-348 500,4 -4,4"/>
<text text-anchor="start" x="227.0091" y="-42.4" font-family="sans-serif" font-weight="bold" font-size="14.00" fill="#000000">Legend</text>
<polygon fill="#ffffb3" stroke="transparent" points="14,-10 14,-30 34,-30 34,-10 14,-10"/>
<text text-anchor="start" x="37.629" y="-15.4" font-family="sans-serif" font-size="14.00" fill="#000000"> &#160;Declarations</text>
<polygon fill="#8dd3c7" stroke="transparent" points="127,-10 127,-30 147,-30 147,-10 127,-10"/>
<text text-anchor="start" x="150.7251" y="-15.4" font-family="sans-serif" font-size="14.00" fill="#000000"> &#160;Module</text>
<polygon fill="#80b1d3" stroke="transparent" points="213,-10 213,-30 233,-30 233,-10 213,-10"/>
<text text-anchor="start" x="236.7812" y="-15.4" font-family="sans-serif" font-size="14.00" fill="#000000"> &#160;Bootstrap</text>
<polygon fill="#fdb462" stroke="transparent" points="310,-10 310,-30 330,-30 330,-10 310,-10"/>
<text text-anchor="start" x="333.6732" y="-15.4" font-family="sans-serif" font-size="14.00" fill="#000000"> &#160;Providers</text>
<polygon fill="#fb8072" stroke="transparent" points="406,-10 406,-30 426,-30 426,-10 406,-10"/>
<text text-anchor="start" x="429.7258" y="-15.4" font-family="sans-serif" font-size="14.00" fill="#000000"> &#160;Exports</text>
<g id="clust1" class="cluster">
<title>cluster_CloukitStoryModule</title>
<polygon fill="none" stroke="#000000" stroke-dasharray="1,5" points="73,-70 73,-268 263,-268 263,-70 73,-70"/>
</g>
<g id="clust3" class="cluster">
<title>cluster_CloukitStoryModule_imports</title>
<polygon fill="none" stroke="#000000" points="126,-78 126,-130 254,-130 254,-78 126,-78"/>
</g>
<g id="clust4" class="cluster">
<title>cluster_CloukitStoryModule_exports</title>
<polygon fill="none" stroke="#000000" points="81,-208 81,-260 255,-260 255,-208 81,-208"/>
</g>
<g id="clust7" class="cluster">
<title>cluster_DemoModule</title>
<polygon fill="none" stroke="#000000" stroke-dasharray="1,5" points="271,-208 271,-336 423,-336 423,-208 271,-208"/>
</g>
<g id="clust10" class="cluster">
<title>cluster_DemoModule_exports</title>
<polygon fill="none" stroke="#000000" points="279,-276 279,-328 415,-328 415,-276 279,-276"/>
</g>
<!-- CommonModule -->
<g id="node1" class="node">
<title>CommonModule</title>
<polygon fill="#8dd3c7" stroke="#000000" points="245.6681,-122 242.6681,-126 221.6681,-126 218.6681,-122 134.3319,-122 134.3319,-86 245.6681,-86 245.6681,-122"/>
<text text-anchor="middle" x="190" y="-99.8" font-family="Times,serif" font-size="14.00" fill="#000000">CommonModule</text>
</g>
<!-- CloukitStoryModule -->
<g id="node2" class="node">
<title>CloukitStoryModule</title>
<polygon fill="#8dd3c7" stroke="#000000" points="254.892,-187 251.892,-191 230.892,-191 227.892,-187 123.108,-187 123.108,-151 254.892,-151 254.892,-187"/>
<text text-anchor="middle" x="189" y="-164.8" font-family="Times,serif" font-size="14.00" fill="#000000">CloukitStoryModule</text>
</g>
<!-- CommonModule&#45;&gt;CloukitStoryModule -->
<g id="edge1" class="edge">
<title>CommonModule&#45;&gt;CloukitStoryModule</title>
<path fill="none" stroke="#000000" d="M190,-122.1061C190,-122.1061 190,-140.991 190,-140.991"/>
<polygon fill="#000000" stroke="#000000" points="186.5001,-140.9909 190,-150.991 193.5001,-140.991 186.5001,-140.9909"/>
</g>
<!-- DemoModule -->
<g id="node4" class="node">
<title>DemoModule</title>
<polygon fill="#8dd3c7" stroke="#000000" points="372.7619,-252 369.7619,-256 348.7619,-256 345.7619,-252 279.2381,-252 279.2381,-216 372.7619,-216 372.7619,-252"/>
<text text-anchor="middle" x="326" y="-229.8" font-family="Times,serif" font-size="14.00" fill="#000000">DemoModule</text>
</g>
<!-- CommonModule&#45;&gt;DemoModule -->
<g id="edge3" class="edge">
<title>CommonModule&#45;&gt;DemoModule</title>
<path fill="none" stroke="#000000" d="M245.7088,-104C283.2671,-104 326,-104 326,-104 326,-104 326,-205.9241 326,-205.9241"/>
<polygon fill="#000000" stroke="#000000" points="322.5001,-205.924 326,-215.9241 329.5001,-205.9241 322.5001,-205.924"/>
</g>
<!-- CloukitStoryComponent  -->
<g id="node3" class="node">
<title>CloukitStoryComponent </title>
<polygon fill="#fb8072" stroke="#000000" points="246.6747,-252 89.3253,-252 89.3253,-216 246.6747,-216 246.6747,-252"/>
<text text-anchor="middle" x="168" y="-229.8" font-family="Times,serif" font-size="14.00" fill="#000000">CloukitStoryComponent </text>
</g>
<!-- CloukitStoryModule&#45;&gt;CloukitStoryComponent  -->
<g id="edge2" class="edge">
<title>CloukitStoryModule&#45;&gt;CloukitStoryComponent </title>
<path fill="none" stroke="#000000" stroke-dasharray="5,2" d="M184.8207,-187.1061C184.8207,-187.1061 184.8207,-205.991 184.8207,-205.991"/>
<polygon fill="#000000" stroke="#000000" points="181.3207,-205.9909 184.8207,-215.991 188.3207,-205.991 181.3207,-205.9909"/>
</g>
<!-- CloukitStoryModule&#45;&gt;DemoModule -->
<g id="edge4" class="edge">
<title>CloukitStoryModule&#45;&gt;DemoModule</title>
<path fill="none" stroke="#000000" d="M250.7666,-187.1061C250.7666,-206.3391 250.7666,-234 250.7667,-234 250.7667,-234 269.2092,-234 269.2092,-234"/>
<polygon fill="#000000" stroke="#000000" points="269.2092,-237.5001 279.2092,-234 269.2091,-230.5001 269.2092,-237.5001"/>
</g>
<!-- DemoComponent  -->
<g id="node5" class="node">
<title>DemoComponent </title>
<polygon fill="#fb8072" stroke="#000000" points="406.5442,-320 287.4558,-320 287.4558,-284 406.5442,-284 406.5442,-320"/>
<text text-anchor="middle" x="347" y="-297.8" font-family="Times,serif" font-size="14.00" fill="#000000">DemoComponent </text>
</g>
<!-- DemoModule&#45;&gt;DemoComponent  -->
<g id="edge5" class="edge">
<title>DemoModule&#45;&gt;DemoComponent </title>
<path fill="none" stroke="#000000" stroke-dasharray="5,2" d="M330.1794,-252.2228C330.1794,-252.2228 330.1794,-273.7269 330.1794,-273.7269"/>
<polygon fill="#000000" stroke="#000000" points="326.6794,-273.7269 330.1794,-283.7269 333.6794,-273.727 326.6794,-273.7269"/>
</g>
</g>
</svg>
