<?xml version="1.0" encoding="UTF-8" standalone="no"?>
<!DOCTYPE svg PUBLIC "-//W3C//DTD SVG 1.1//EN"
 "http://www.w3.org/Graphics/SVG/1.1/DTD/svg11.dtd">
<!-- Generated by graphviz version 2.40.1 (20161225.0304)
 -->
<!-- Title: dependencies Pages: 1 -->
<svg width="602pt" height="284pt"
 viewBox="0.00 0.00 602.00 284.00" xmlns="http://www.w3.org/2000/svg" xmlns:xlink="http://www.w3.org/1999/xlink">
<g id="graph0" class="graph" transform="scale(1 1) rotate(0) translate(4 280)">
<title>dependencies</title>
<polygon fill="#ffffff" stroke="transparent" points="-4,4 -4,-280 598,-280 598,4 -4,4"/>
<text text-anchor="start" x="276.0091" y="-42.4" font-family="sans-serif" font-weight="bold" font-size="14.00" fill="#000000">Legend</text>
<polygon fill="#ffffb3" stroke="transparent" points="63,-10 63,-30 83,-30 83,-10 63,-10"/>
<text text-anchor="start" x="86.629" y="-15.4" font-family="sans-serif" font-size="14.00" fill="#000000"> &#160;Declarations</text>
<polygon fill="#8dd3c7" stroke="transparent" points="176,-10 176,-30 196,-30 196,-10 176,-10"/>
<text text-anchor="start" x="199.7251" y="-15.4" font-family="sans-serif" font-size="14.00" fill="#000000"> &#160;Module</text>
<polygon fill="#80b1d3" stroke="transparent" points="262,-10 262,-30 282,-30 282,-10 262,-10"/>
<text text-anchor="start" x="285.7812" y="-15.4" font-family="sans-serif" font-size="14.00" fill="#000000"> &#160;Bootstrap</text>
<polygon fill="#fdb462" stroke="transparent" points="359,-10 359,-30 379,-30 379,-10 359,-10"/>
<text text-anchor="start" x="382.6732" y="-15.4" font-family="sans-serif" font-size="14.00" fill="#000000"> &#160;Providers</text>
<polygon fill="#fb8072" stroke="transparent" points="455,-10 455,-30 475,-30 475,-10 455,-10"/>
<text text-anchor="start" x="478.7258" y="-15.4" font-family="sans-serif" font-size="14.00" fill="#000000"> &#160;Exports</text>
<g id="clust1" class="cluster">
<title>cluster_DemoModule</title>
<polygon fill="none" stroke="#000000" stroke-dasharray="1,5" points="8,-70 8,-268 586,-268 586,-70 8,-70"/>
</g>
<g id="clust2" class="cluster">
<title>cluster_DemoModule_declarations</title>
<polygon fill="none" stroke="#000000" points="302,-78 302,-130 578,-130 578,-78 302,-78"/>
</g>
<g id="clust5" class="cluster">
<title>cluster_DemoModule_imports</title>
<polygon fill="none" stroke="#000000" points="16,-78 16,-130 294,-130 294,-78 16,-78"/>
</g>
<g id="clust6" class="cluster">
<title>cluster_DemoModule_exports</title>
<polygon fill="none" stroke="#000000" points="233,-208 233,-260 369,-260 369,-208 233,-208"/>
</g>
<!-- DemoComponent -->
<g id="node1" class="node">
<title>DemoComponent</title>
<polygon fill="#ffffb3" stroke="#000000" points="569.5451,-122 454.4549,-122 454.4549,-86 569.5451,-86 569.5451,-122"/>
<text text-anchor="middle" x="512" y="-99.8" font-family="Times,serif" font-size="14.00" fill="#000000">DemoComponent</text>
</g>
<!-- DemoModule -->
<g id="node3" class="node">
<title>DemoModule</title>
<polygon fill="#8dd3c7" stroke="#000000" points="347.7619,-187 344.7619,-191 323.7619,-191 320.7619,-187 254.2381,-187 254.2381,-151 347.7619,-151 347.7619,-187"/>
<text text-anchor="middle" x="301" y="-164.8" font-family="Times,serif" font-size="14.00" fill="#000000">DemoModule</text>
</g>
<!-- DemoComponent&#45;&gt;DemoModule -->
<g id="edge1" class="edge">
<title>DemoComponent&#45;&gt;DemoModule</title>
<path fill="none" stroke="#000000" d="M512,-122.1061C512,-141.3391 512,-169 512,-169 512,-169 357.8277,-169 357.8277,-169"/>
<polygon fill="#000000" stroke="#000000" points="357.8278,-165.5001 347.8277,-169 357.8277,-172.5001 357.8278,-165.5001"/>
</g>
<!-- Story00Component -->
<g id="node2" class="node">
<title>Story00Component</title>
<polygon fill="#ffffb3" stroke="#000000" points="435.6666,-122 310.3334,-122 310.3334,-86 435.6666,-86 435.6666,-122"/>
<text text-anchor="middle" x="373" y="-99.8" font-family="Times,serif" font-size="14.00" fill="#000000">Story00Component</text>
</g>
<!-- Story00Component&#45;&gt;DemoModule -->
<g id="edge2" class="edge">
<title>Story00Component&#45;&gt;DemoModule</title>
<path fill="none" stroke="#000000" d="M329.0239,-122.1061C329.0239,-122.1061 329.0239,-140.991 329.0239,-140.991"/>
<polygon fill="#000000" stroke="#000000" points="325.5239,-140.9909 329.0239,-150.991 332.5239,-140.991 325.5239,-140.9909"/>
</g>
<!-- DemoComponent  -->
<g id="node6" class="node">
<title>DemoComponent </title>
<polygon fill="#fb8072" stroke="#000000" points="360.5442,-252 241.4558,-252 241.4558,-216 360.5442,-216 360.5442,-252"/>
<text text-anchor="middle" x="301" y="-229.8" font-family="Times,serif" font-size="14.00" fill="#000000">DemoComponent </text>
</g>
<!-- DemoModule&#45;&gt;DemoComponent  -->
<g id="edge5" class="edge">
<title>DemoModule&#45;&gt;DemoComponent </title>
<path fill="none" stroke="#000000" stroke-dasharray="5,2" d="M301,-187.1061C301,-187.1061 301,-205.991 301,-205.991"/>
<polygon fill="#000000" stroke="#000000" points="297.5001,-205.9909 301,-215.991 304.5001,-205.991 297.5001,-205.9909"/>
</g>
<!-- CommonModule -->
<g id="node4" class="node">
<title>CommonModule</title>
<polygon fill="#8dd3c7" stroke="#000000" points="285.6681,-122 282.6681,-126 261.6681,-126 258.6681,-122 174.3319,-122 174.3319,-86 285.6681,-86 285.6681,-122"/>
<text text-anchor="middle" x="230" y="-99.8" font-family="Times,serif" font-size="14.00" fill="#000000">CommonModule</text>
</g>
<!-- CommonModule&#45;&gt;DemoModule -->
<g id="edge3" class="edge">
<title>CommonModule&#45;&gt;DemoModule</title>
<path fill="none" stroke="#000000" d="M269.9765,-122.1061C269.9765,-122.1061 269.9765,-140.991 269.9765,-140.991"/>
<polygon fill="#000000" stroke="#000000" points="266.4766,-140.9909 269.9765,-150.991 273.4766,-140.991 266.4766,-140.9909"/>
</g>
<!-- CloukitStoryModule -->
<g id="node5" class="node">
<title>CloukitStoryModule</title>
<polygon fill="#8dd3c7" stroke="#000000" points="155.892,-122 152.892,-126 131.892,-126 128.892,-122 24.108,-122 24.108,-86 155.892,-86 155.892,-122"/>
<text text-anchor="middle" x="90" y="-99.8" font-family="Times,serif" font-size="14.00" fill="#000000">CloukitStoryModule</text>
</g>
<!-- CloukitStoryModule&#45;&gt;DemoModule -->
<g id="edge4" class="edge">
<title>CloukitStoryModule&#45;&gt;DemoModule</title>
<path fill="none" stroke="#000000" d="M90,-122.1061C90,-141.3391 90,-169 90,-169 90,-169 244.1723,-169 244.1723,-169"/>
<polygon fill="#000000" stroke="#000000" points="244.1723,-172.5001 254.1723,-169 244.1722,-165.5001 244.1723,-172.5001"/>
</g>
</g>
</svg>
