<?xml version="1.0" encoding="UTF-8" standalone="no"?>
<!DOCTYPE svg PUBLIC "-//W3C//DTD SVG 1.1//EN"
 "http://www.w3.org/Graphics/SVG/1.1/DTD/svg11.dtd">
<!-- Generated by graphviz version 2.40.1 (20161225.0304)
 -->
<!-- Title: dependencies Pages: 1 -->
<svg width="980pt" height="284pt"
 viewBox="0.00 0.00 980.00 284.00" xmlns="http://www.w3.org/2000/svg" xmlns:xlink="http://www.w3.org/1999/xlink">
<g id="graph0" class="graph" transform="scale(1 1) rotate(0) translate(4 280)">
<title>dependencies</title>
<polygon fill="#ffffff" stroke="transparent" points="-4,4 -4,-280 976,-280 976,4 -4,4"/>
<text text-anchor="start" x="465.0091" y="-42.4" font-family="sans-serif" font-weight="bold" font-size="14.00" fill="#000000">Legend</text>
<polygon fill="#ffffb3" stroke="transparent" points="252,-10 252,-30 272,-30 272,-10 252,-10"/>
<text text-anchor="start" x="275.629" y="-15.4" font-family="sans-serif" font-size="14.00" fill="#000000"> &#160;Declarations</text>
<polygon fill="#8dd3c7" stroke="transparent" points="365,-10 365,-30 385,-30 385,-10 365,-10"/>
<text text-anchor="start" x="388.7251" y="-15.4" font-family="sans-serif" font-size="14.00" fill="#000000"> &#160;Module</text>
<polygon fill="#80b1d3" stroke="transparent" points="451,-10 451,-30 471,-30 471,-10 451,-10"/>
<text text-anchor="start" x="474.7812" y="-15.4" font-family="sans-serif" font-size="14.00" fill="#000000"> &#160;Bootstrap</text>
<polygon fill="#fdb462" stroke="transparent" points="548,-10 548,-30 568,-30 568,-10 548,-10"/>
<text text-anchor="start" x="571.6732" y="-15.4" font-family="sans-serif" font-size="14.00" fill="#000000"> &#160;Providers</text>
<polygon fill="#fb8072" stroke="transparent" points="644,-10 644,-30 664,-30 664,-10 644,-10"/>
<text text-anchor="start" x="667.7258" y="-15.4" font-family="sans-serif" font-size="14.00" fill="#000000"> &#160;Exports</text>
<g id="clust1" class="cluster">
<title>cluster_CloukitStoryModule</title>
<polygon fill="none" stroke="#000000" stroke-dasharray="1,5" points="8,-70 8,-268 964,-268 964,-70 8,-70"/>
</g>
<g id="clust2" class="cluster">
<title>cluster_CloukitStoryModule_declarations</title>
<polygon fill="none" stroke="#000000" points="356,-78 356,-130 956,-130 956,-78 356,-78"/>
</g>
<g id="clust6" class="cluster">
<title>cluster_CloukitStoryModule_imports</title>
<polygon fill="none" stroke="#000000" points="220,-78 220,-130 348,-130 348,-78 220,-78"/>
</g>
<g id="clust7" class="cluster">
<title>cluster_CloukitStoryModule_exports</title>
<polygon fill="none" stroke="#000000" points="405,-208 405,-260 579,-260 579,-208 405,-208"/>
</g>
<g id="clust9" class="cluster">
<title>cluster_CloukitStoryModule_providers</title>
<polygon fill="none" stroke="#000000" points="16,-78 16,-130 212,-130 212,-78 16,-78"/>
</g>
<!-- CloukitStoryComponent -->
<g id="node1" class="node">
<title>CloukitStoryComponent</title>
<polygon fill="#ffffb3" stroke="#000000" points="947.6749,-122 794.3251,-122 794.3251,-86 947.6749,-86 947.6749,-122"/>
<text text-anchor="middle" x="871" y="-99.8" font-family="Times,serif" font-size="14.00" fill="#000000">CloukitStoryComponent</text>
</g>
<!-- CloukitStoryModule -->
<g id="node4" class="node">
<title>CloukitStoryModule</title>
<polygon fill="#8dd3c7" stroke="#000000" points="557.892,-187 554.892,-191 533.892,-191 530.892,-187 426.108,-187 426.108,-151 557.892,-151 557.892,-187"/>
<text text-anchor="middle" x="492" y="-164.8" font-family="Times,serif" font-size="14.00" fill="#000000">CloukitStoryModule</text>
</g>
<!-- CloukitStoryComponent&#45;&gt;CloukitStoryModule -->
<g id="edge1" class="edge">
<title>CloukitStoryComponent&#45;&gt;CloukitStoryModule</title>
<path fill="none" stroke="#000000" d="M871,-122.2843C871,-143.3211 871,-175 871,-175 871,-175 568.0168,-175 568.0168,-175"/>
<polygon fill="#000000" stroke="#000000" points="568.0168,-171.5001 558.0168,-175 568.0167,-178.5001 568.0168,-171.5001"/>
</g>
<!-- CustomSafeHtmlPipe -->
<g id="node2" class="node">
<title>CustomSafeHtmlPipe</title>
<polygon fill="#ffffb3" stroke="#000000" points="776.101,-122 637.899,-122 637.899,-86 776.101,-86 776.101,-122"/>
<text text-anchor="middle" x="707" y="-99.8" font-family="Times,serif" font-size="14.00" fill="#000000">CustomSafeHtmlPipe</text>
</g>
<!-- CustomSafeHtmlPipe&#45;&gt;CloukitStoryModule -->
<g id="edge2" class="edge">
<title>CustomSafeHtmlPipe&#45;&gt;CloukitStoryModule</title>
<path fill="none" stroke="#000000" d="M707,-122.0225C707,-139.3734 707,-163 707,-163 707,-163 567.9682,-163 567.9682,-163"/>
<polygon fill="#000000" stroke="#000000" points="567.9682,-159.5001 557.9682,-163 567.9682,-166.5001 567.9682,-159.5001"/>
</g>
<!-- CloukitStoryPrismCssWrapperComponent -->
<g id="node3" class="node">
<title>CloukitStoryPrismCssWrapperComponent</title>
<polygon fill="#ffffb3" stroke="#000000" points="619.5348,-122 364.4652,-122 364.4652,-86 619.5348,-86 619.5348,-122"/>
<text text-anchor="middle" x="492" y="-99.8" font-family="Times,serif" font-size="14.00" fill="#000000">CloukitStoryPrismCssWrapperComponent</text>
</g>
<!-- CloukitStoryPrismCssWrapperComponent&#45;&gt;CloukitStoryModule -->
<g id="edge3" class="edge">
<title>CloukitStoryPrismCssWrapperComponent&#45;&gt;CloukitStoryModule</title>
<path fill="none" stroke="#000000" d="M492,-122.1061C492,-122.1061 492,-140.991 492,-140.991"/>
<polygon fill="#000000" stroke="#000000" points="488.5001,-140.9909 492,-150.991 495.5001,-140.991 488.5001,-140.9909"/>
</g>
<!-- CloukitStoryComponent  -->
<g id="node6" class="node">
<title>CloukitStoryComponent </title>
<polygon fill="#fb8072" stroke="#000000" points="570.6747,-252 413.3253,-252 413.3253,-216 570.6747,-216 570.6747,-252"/>
<text text-anchor="middle" x="492" y="-229.8" font-family="Times,serif" font-size="14.00" fill="#000000">CloukitStoryComponent </text>
</g>
<!-- CloukitStoryModule&#45;&gt;CloukitStoryComponent  -->
<g id="edge5" class="edge">
<title>CloukitStoryModule&#45;&gt;CloukitStoryComponent </title>
<path fill="none" stroke="#000000" stroke-dasharray="5,2" d="M492,-187.1061C492,-187.1061 492,-205.991 492,-205.991"/>
<polygon fill="#000000" stroke="#000000" points="488.5001,-205.9909 492,-215.991 495.5001,-205.991 488.5001,-205.9909"/>
</g>
<!-- CommonModule -->
<g id="node5" class="node">
<title>CommonModule</title>
<polygon fill="#8dd3c7" stroke="#000000" points="339.6681,-122 336.6681,-126 315.6681,-126 312.6681,-122 228.3319,-122 228.3319,-86 339.6681,-86 339.6681,-122"/>
<text text-anchor="middle" x="284" y="-99.8" font-family="Times,serif" font-size="14.00" fill="#000000">CommonModule</text>
</g>
<!-- CommonModule&#45;&gt;CloukitStoryModule -->
<g id="edge4" class="edge">
<title>CommonModule&#45;&gt;CloukitStoryModule</title>
<path fill="none" stroke="#000000" d="M284,-122.0225C284,-139.3734 284,-163 284,-163 284,-163 415.9017,-163 415.9017,-163"/>
<polygon fill="#000000" stroke="#000000" points="415.9017,-166.5001 425.9017,-163 415.9017,-159.5001 415.9017,-166.5001"/>
</g>
<!-- CloukitStoryService -->
<g id="node7" class="node">
<title>CloukitStoryService</title>
<ellipse fill="#fdb462" stroke="#000000" cx="114" cy="-104" rx="89.7846" ry="18"/>
<text text-anchor="middle" x="114" y="-99.8" font-family="Times,serif" font-size="14.00" fill="#000000">CloukitStoryService</text>
</g>
<!-- CloukitStoryService&#45;&gt;CloukitStoryModule -->
<g id="edge6" class="edge">
<title>CloukitStoryService&#45;&gt;CloukitStoryModule</title>
<path fill="none" stroke="#000000" d="M114,-122.2843C114,-143.3211 114,-175 114,-175 114,-175 415.7249,-175 415.7249,-175"/>
<polygon fill="#000000" stroke="#000000" points="415.7249,-178.5001 425.7249,-175 415.7248,-171.5001 415.7249,-178.5001"/>
</g>
</g>
</svg>
