<?xml version="1.0" encoding="UTF-8" standalone="no"?>
<!DOCTYPE svg PUBLIC "-//W3C//DTD SVG 1.1//EN"
 "http://www.w3.org/Graphics/SVG/1.1/DTD/svg11.dtd">
<!-- Generated by graphviz version 2.40.1 (20161225.0304)
 -->
<!-- Title: dependencies Pages: 1 -->
<svg width="844pt" height="284pt"
 viewBox="0.00 0.00 844.00 284.00" xmlns="http://www.w3.org/2000/svg" xmlns:xlink="http://www.w3.org/1999/xlink">
<g id="graph0" class="graph" transform="scale(1 1) rotate(0) translate(4 280)">
<title>dependencies</title>
<polygon fill="#ffffff" stroke="transparent" points="-4,4 -4,-280 840,-280 840,4 -4,4"/>
<text text-anchor="start" x="397.0091" y="-42.4" font-family="sans-serif" font-weight="bold" font-size="14.00" fill="#000000">Legend</text>
<polygon fill="#ffffb3" stroke="transparent" points="184,-10 184,-30 204,-30 204,-10 184,-10"/>
<text text-anchor="start" x="207.629" y="-15.4" font-family="sans-serif" font-size="14.00" fill="#000000"> &#160;Declarations</text>
<polygon fill="#8dd3c7" stroke="transparent" points="297,-10 297,-30 317,-30 317,-10 297,-10"/>
<text text-anchor="start" x="320.7251" y="-15.4" font-family="sans-serif" font-size="14.00" fill="#000000"> &#160;Module</text>
<polygon fill="#80b1d3" stroke="transparent" points="383,-10 383,-30 403,-30 403,-10 383,-10"/>
<text text-anchor="start" x="406.7812" y="-15.4" font-family="sans-serif" font-size="14.00" fill="#000000"> &#160;Bootstrap</text>
<polygon fill="#fdb462" stroke="transparent" points="480,-10 480,-30 500,-30 500,-10 480,-10"/>
<text text-anchor="start" x="503.6732" y="-15.4" font-family="sans-serif" font-size="14.00" fill="#000000"> &#160;Providers</text>
<polygon fill="#fb8072" stroke="transparent" points="576,-10 576,-30 596,-30 596,-10 576,-10"/>
<text text-anchor="start" x="599.7258" y="-15.4" font-family="sans-serif" font-size="14.00" fill="#000000"> &#160;Exports</text>
<g id="clust1" class="cluster">
<title>cluster_CloukitStoryModule</title>
<polygon fill="none" stroke="#000000" stroke-dasharray="1,5" points="8,-70 8,-268 828,-268 828,-70 8,-70"/>
</g>
<g id="clust2" class="cluster">
<title>cluster_CloukitStoryModule_declarations</title>
<polygon fill="none" stroke="#000000" points="220,-78 220,-130 820,-130 820,-78 220,-78"/>
</g>
<g id="clust7" class="cluster">
<title>cluster_CloukitStoryModule_exports</title>
<polygon fill="none" stroke="#000000" points="376,-208 376,-260 550,-260 550,-208 376,-208"/>
</g>
<g id="clust9" class="cluster">
<title>cluster_CloukitStoryModule_providers</title>
<polygon fill="none" stroke="#000000" points="16,-78 16,-130 212,-130 212,-78 16,-78"/>
</g>
<!-- CloukitStoryComponent -->
<g id="node1" class="node">
<title>CloukitStoryComponent</title>
<polygon fill="#ffffb3" stroke="#000000" points="811.6749,-122 658.3251,-122 658.3251,-86 811.6749,-86 811.6749,-122"/>
<text text-anchor="middle" x="735" y="-99.8" font-family="Times,serif" font-size="14.00" fill="#000000">CloukitStoryComponent</text>
</g>
<!-- CloukitStoryModule -->
<g id="node4" class="node">
<title>CloukitStoryModule</title>
<polygon fill="#8dd3c7" stroke="#000000" points="528.892,-187 525.892,-191 504.892,-191 501.892,-187 397.108,-187 397.108,-151 528.892,-151 528.892,-187"/>
<text text-anchor="middle" x="463" y="-164.8" font-family="Times,serif" font-size="14.00" fill="#000000">CloukitStoryModule</text>
</g>
<!-- CloukitStoryComponent&#45;&gt;CloukitStoryModule -->
<g id="edge1" class="edge">
<title>CloukitStoryComponent&#45;&gt;CloukitStoryModule</title>
<path fill="none" stroke="#000000" d="M735,-122.1061C735,-141.3391 735,-169 735,-169 735,-169 539.1909,-169 539.1909,-169"/>
<polygon fill="#000000" stroke="#000000" points="539.1909,-165.5001 529.1909,-169 539.1908,-172.5001 539.1909,-165.5001"/>
</g>
<!-- CustomSafeHtmlPipe -->
<g id="node2" class="node">
<title>CustomSafeHtmlPipe</title>
<polygon fill="#ffffb3" stroke="#000000" points="640.101,-122 501.899,-122 501.899,-86 640.101,-86 640.101,-122"/>
<text text-anchor="middle" x="571" y="-99.8" font-family="Times,serif" font-size="14.00" fill="#000000">CustomSafeHtmlPipe</text>
</g>
<!-- CustomSafeHtmlPipe&#45;&gt;CloukitStoryModule -->
<g id="edge2" class="edge">
<title>CustomSafeHtmlPipe&#45;&gt;CloukitStoryModule</title>
<path fill="none" stroke="#000000" d="M515.4478,-122.1061C515.4478,-122.1061 515.4478,-140.991 515.4478,-140.991"/>
<polygon fill="#000000" stroke="#000000" points="511.9478,-140.9909 515.4478,-150.991 518.9478,-140.991 511.9478,-140.9909"/>
</g>
<!-- CloukitStoryPrismCssWrapperComponent -->
<g id="node3" class="node">
<title>CloukitStoryPrismCssWrapperComponent</title>
<polygon fill="#ffffb3" stroke="#000000" points="483.5348,-122 228.4652,-122 228.4652,-86 483.5348,-86 483.5348,-122"/>
<text text-anchor="middle" x="356" y="-99.8" font-family="Times,serif" font-size="14.00" fill="#000000">CloukitStoryPrismCssWrapperComponent</text>
</g>
<!-- CloukitStoryPrismCssWrapperComponent&#45;&gt;CloukitStoryModule -->
<g id="edge3" class="edge">
<title>CloukitStoryPrismCssWrapperComponent&#45;&gt;CloukitStoryModule</title>
<path fill="none" stroke="#000000" d="M440.4106,-122.1061C440.4106,-122.1061 440.4106,-140.991 440.4106,-140.991"/>
<polygon fill="#000000" stroke="#000000" points="436.9107,-140.9909 440.4106,-150.991 443.9107,-140.991 436.9107,-140.9909"/>
</g>
<!-- CloukitStoryComponent  -->
<g id="node5" class="node">
<title>CloukitStoryComponent </title>
<polygon fill="#fb8072" stroke="#000000" points="541.6747,-252 384.3253,-252 384.3253,-216 541.6747,-216 541.6747,-252"/>
<text text-anchor="middle" x="463" y="-229.8" font-family="Times,serif" font-size="14.00" fill="#000000">CloukitStoryComponent </text>
</g>
<!-- CloukitStoryModule&#45;&gt;CloukitStoryComponent  -->
<g id="edge4" class="edge">
<title>CloukitStoryModule&#45;&gt;CloukitStoryComponent </title>
<path fill="none" stroke="#000000" stroke-dasharray="5,2" d="M463,-187.1061C463,-187.1061 463,-205.991 463,-205.991"/>
<polygon fill="#000000" stroke="#000000" points="459.5001,-205.9909 463,-215.991 466.5001,-205.991 459.5001,-205.9909"/>
</g>
<!-- CloukitStoryService -->
<g id="node6" class="node">
<title>CloukitStoryService</title>
<ellipse fill="#fdb462" stroke="#000000" cx="114" cy="-104" rx="89.7846" ry="18"/>
<text text-anchor="middle" x="114" y="-99.8" font-family="Times,serif" font-size="14.00" fill="#000000">CloukitStoryService</text>
</g>
<!-- CloukitStoryService&#45;&gt;CloukitStoryModule -->
<g id="edge5" class="edge">
<title>CloukitStoryService&#45;&gt;CloukitStoryModule</title>
<path fill="none" stroke="#000000" d="M114,-122.1061C114,-141.3391 114,-169 114,-169 114,-169 386.9455,-169 386.9455,-169"/>
<polygon fill="#000000" stroke="#000000" points="386.9455,-172.5001 396.9455,-169 386.9454,-165.5001 386.9455,-172.5001"/>
</g>
</g>
</svg>
